<svg width="98" height="96" viewBox="0 0 98 96" xmlns="http://www.w3.org/2000/svg"><g fill="none" fill-rule="evenodd"><path d="M91.358 68.04A47.628 47.628 0 0095.65 48.22c0-26.387-21.378-47.78-47.748-47.78C21.533.44.155 21.834.155 48.22S21.533 96 47.902 96c18.323 0 34.232-10.331 42.238-25.486l1.218-2.475" fill="#3479BD"/><path d="M46.79 48l9.28.035-2.165 8.007h-6.022s.483-1.766.713-2.616l-1.372-.032c-3.277 0-6.5 5.006-6.5 8.455s2.732 4.116 3.441 4.116l6.765.027L59.144 53.3l-1.92-.024 1.43-5.241h12.58l.858 15.153 6.121-9.888h-1.922l1.463-5.265h12.4l1.386 20.52-1.22 2.522h-5.529l-.353-3.305h-9.01l-1.989 3.27h-7.81l-.179-3.27h-8.81l-2.145 3.305-12.488-.001c-3.858 0-7.39-2.41-7.997-6.11a15.871 15.871 0 01.003-5.179l-3.149 11.288-6.88.002L19.484 60l-2.992 11.077H10.31L15.1 53.303h-2.12l1.451-5.24h7.733l5.4 12.94 2.15-7.712-2.137.009 1.457-5.265 8.251.028-2.404 8.502C36.355 52.227 41.019 48 46.79 48zm18.19 6.871l-4.79 7.401h5.044l-.254-7.401zm19.16-.074l-4.78 7.375h5.022l-.241-7.375z" fill="#FFFFFE"/><path d="M93.547 75.053h.733l1.108 1.846h.713l-1.195-1.877c.617-.077 1.09-.409 1.09-1.17 0-.84-.491-1.212-1.485-1.212h-1.6V76.9h.636v-3.713h.868c.443 0 .916.099.916.625 0 .656-.482.695-1.023.695h-.76v.547zm.773 3.409A3.663 3.663 0 0098 74.759c0-2.119-1.697-3.682-3.681-3.682-2.007 0-3.703 1.563-3.703 3.682 0 2.14 1.696 3.703 3.703 3.703zm-2.97-3.703c0-1.747 1.3-3.066 2.97-3.066 1.646 0 2.948 1.32 2.948 3.066 0 1.778-1.302 3.087-2.948 3.087-1.67 0-2.97-1.309-2.97-3.087z" fill="#3479BD"/></g></svg>