<svg width="293" height="63" viewBox="0 0 293 63" xmlns="http://www.w3.org/2000/svg"><g fill="none" fill-rule="evenodd"><g fill="#D09B2C" fill-rule="nonzero"><path d="M232.677 50.297h10.902l-.026 6.112-.108.24a10.418 10.418 0 01-9.324 5.39c-6.057 0-11.172-4.985-11.172-10.883 0-5.898 5.116-10.883 11.172-10.883a10.797 10.797 0 017.817 3.312l.764.788-3.326 3.326-.196-.24c-.021-.024-2.105-2.513-5.06-2.513a6.21 6.21 0 104.904 10.022v-.283h-6.345l-.002-4.388zm-29.021 11.019h16.071v-4.342h-11.399v-3.738h7.966v-4.352h-7.966v-3.546h11.4v-4.343h-16.072v20.32zm44.092 0h16.072v-4.342h-11.4v-3.738h7.966v-4.352h-7.965v-3.546h11.399v-4.343h-16.072v20.32zm-87.867-10.16c0 6.001-5.004 10.884-11.156 10.884-6.151 0-11.156-4.883-11.156-10.884 0-6.002 5.005-10.883 11.156-10.883 6.151 0 11.156 4.882 11.156 10.883zm-4.994 0a6.162 6.162 0 10-6.162 6.213 6.193 6.193 0 006.162-6.213zm12.94-10.16h-4.672v20.321h15.967v-4.342h-11.294v-15.98zm20.277 0h-4.673v20.321H199.4v-4.342h-11.297l.002-15.98zm-56.8 14.203a6.21 6.21 0 11-.014-8.1l.184.214 3.673-3.19-.195-.212a11.298 11.298 0 00-8.315-3.638c-6.152 0-11.156 4.882-11.156 10.883 0 6.001 5.004 10.884 11.156 10.884a11.293 11.293 0 008.328-3.654l.194-.212-3.673-3.19-.183.215zm28.577-35.498c0 6.002-5.004 10.884-11.156 10.884-6.151 0-11.156-4.882-11.156-10.884 0-6.001 5.005-10.883 11.156-10.883 6.151 0 11.156 4.882 11.156 10.883zm-4.994 0a6.162 6.162 0 10-6.162 6.211 6.193 6.193 0 006.162-6.21zm49.123 0c0 6.002-5.004 10.884-11.155 10.884s-11.156-4.882-11.156-10.884c0-6.001 5.004-10.883 11.156-10.883 6.151 0 11.155 4.882 11.155 10.883zm-4.994 0a6.161 6.161 0 10-6.161 6.211 6.193 6.193 0 006.161-6.21zm93.899 0c0 6.002-5.005 10.884-11.156 10.884-6.151 0-11.155-4.882-11.155-10.884 0-6.001 5.004-10.883 11.155-10.883s11.157 4.882 11.157 10.883h-.001zm-4.995 0a6.161 6.161 0 10-6.161 6.211 6.193 6.193 0 006.163-6.21h-.002zM168.36 9.537h-4.674v20.321h15.97v-4.342h-11.297V9.537zm70.143-.313l7.907 20.637h-4.828L240.01 25.7h-7l-1.543 4.161h-4.827l7.877-20.637h3.986zm-.13 12.11l-1.863-4.968-1.863 4.967h3.726zm-26.031 8.532h-4.69V9.536l9.932.004a7.345 7.345 0 012.15 14.37l3.78 5.956h-5.008l-3.57-5.627h-2.597l.003 5.627zm0-9.986h5.214c1.56-.33 2.688-1.583 2.688-2.99 0-1.407-1.129-2.66-2.688-2.989h-5.214v5.979zm-81.039 3.865a6.211 6.211 0 11-.013-8.1l.184.213 3.673-3.19-.195-.212a11.297 11.297 0 00-8.315-3.638c-6.152 0-11.156 4.882-11.156 10.884 0 6.001 5.004 10.883 11.156 10.883a11.293 11.293 0 008.328-3.653l.194-.213-3.673-3.19-.183.216zm136.527-4.046a10.057 10.057 0 01-10.167 10.162l-3.538-.006-.262.007h-4.326V9.54l8.126-.003a10.057 10.057 0 0110.167 10.162zm-4.507.002a5.79 5.79 0 00-5.748-5.818h-3.373V25.52h3.373a5.79 5.79 0 005.748-5.819zM45.251.198H.17v61.844h1.28l8.95-8.95 2.452 2.454 7.835-7.833a22.244 22.244 0 01-8.776-17.626c0-12.394 10.341-22.478 23.054-22.478A22.849 22.849 0 0145.25 10.04c.278.14.551.285.824.435l.1.055c.258.144.513.294.764.448l.127.077c.25.155.497.314.741.478l.101.069c.506.344.997.707 1.474 1.088l.098.078c.226.182.447.37.666.56l.119.104c.217.192.43.387.64.584l.094.092c.218.21.434.422.643.64l-6.39 6.364-.14.14c-2.735-2.84-6.025-4.927-10.145-4.927a13.775 13.775 0 00-7.88 24.99l5.704-5.703 7.188 7.186A15.01 15.01 0 0045.5 38.76l6.685 6.255a23.081 23.081 0 01-5.548 4.442l12.59 12.585H86.91l7.861-7.86 7.861 7.86h4.487V.198H45.25zM80.06 52.566a23.244 23.244 0 01-18.021-8.477v-.007a22.219 22.219 0 01-4.383-8.69l-.01-.042a23.334 23.334 0 01-.096-.403l-.022-.1-.083-.377-.024-.126a24.909 24.909 0 01-.07-.367l-.02-.116a22.454 22.454 0 01-.103-.65l-.03-.211c-.012-.086-.022-.172-.032-.258-.01-.085-.023-.182-.032-.274a27.127 27.127 0 01-.09-1.086l-.013-.217-.014-.356c0-.06-.004-.12-.005-.18a20.786 20.786 0 010-1.08c0-.06.004-.12.005-.18l.014-.357.012-.216a20.11 20.11 0 01.09-1.087c.01-.092.022-.183.033-.275l.031-.256.031-.213c.031-.217.065-.433.103-.648l.02-.117c.022-.122.045-.244.07-.366l.024-.127c.026-.126.054-.252.083-.377l.022-.1c.031-.135.062-.27.096-.403l.01-.041a22.216 22.216 0 014.383-8.693v-.008a23.227 23.227 0 0134.692-1.342l-6.526 6.51c-2.735-2.839-6.025-4.927-10.144-4.927-7.6 0-13.762 6.162-13.762 13.762 0 7.6 6.162 13.761 13.762 13.761 3.93 0 7.641-1.947 10.151-4.66.13-.141.282-.268.406-.412l6.66 6.238a23.26 23.26 0 01-17.218 7.55z"/></g><path d="M107.088-16.596h8.393v95.422h-8.393z"/><path d="M107.119 8.487V.094h202.583v8.393z"/><path d="M292.916-16.596h16.786v95.422h-16.786zM-16.615-16.588H.171v95.414h-16.786z"/><path d="M-16.615.198v-16.786h326.318V.198zM-16.616 78.826V62.04h326.318v16.786z"/><path d="M45.333-16.596h16.786v95.422H45.333z"/></g></svg>