<svg width="114" height="129" viewBox="0 0 114 129" xmlns="http://www.w3.org/2000/svg"><g fill-rule="nonzero" fill="none"><path d="M75.15.2L57.83 7.974 39.896.223.97 18.038v52.997c-.095 20.384 10.647 39.26 28.159 49.48a56.128 56.128 0 0056.627 0c17.512-10.22 28.255-29.096 28.159-49.48v-52.99L75.15.2z" fill="#FFB71B"/><path d="M109.11 21.153v49.881c0 28.738-23.133 52.035-51.668 52.035S5.774 99.772 5.774 71.034V21.153L39.95 5.513l12.765 5.516-9.39 8.749L75.126 5.513l33.984 15.64z" fill="#010101"/><path d="M103.269 61.225s0-14.59-12.578-23.565l5.529-5.488a55.08 55.08 0 01-9.78-3.354c-5.811-2.531-13.262-1.779-17.619 1.496 0 0-7.453-7.341-28.459-2.58-12.03 2.729-18.208 3.331-21.292 3.354l5.49 6.063a42.082 42.082 0 0110.095-.903s-16.097 5.25-23.935 25.126l6.172-1.515c-5.577 23.693 8.8 47.498 32.256 53.406 0 0-7.857-8.127-4.186-21.378 2.45 1.18 5.62 4.164 9.35 10.857a12.019 12.019 0 005.623 5.476 8.508 8.508 0 018.096-4.863h13.027a3.39 3.39 0 013.26 2.222 10.042 10.042 0 004.772-7.467 8.285 8.285 0 00-1.707-5.946c1.254-16.222 6.456-24.093 6.456-24.093l1.49 10.1s7.942-6.767 4.217-19.801l3.723 2.853z" fill="#FFB71B"/><path d="M63.796 53.986a32.355 32.355 0 01-12.397-1.54c2.223 5.007 11.696 4.128 11.696 4.128a16.765 16.765 0 01-4.975 2.54c9.768 3.724 20.891-2.282 20.891-2.282s-.28-3.15-4.166-6.047a19.355 19.355 0 01-5.063-4.957 18.034 18.034 0 00-17.305.473c-1.14 5.057 11.32 7.68 11.32 7.68" fill="#FFFFFF"/><path d="M99.546 58.38c.05-.703.046-1.409-.011-2.11-.573-6.007-4.895-10.5-9.654-10.036a6.49 6.49 0 00-.874.142s.128 1.28-3.162 4.616c-3.291 3.336-3.374 6.184-3.374 6.184 4.165 1.79 6.89 1.3 8.53.462a6.92 6.92 0 01-2.933-1.71c5.093.388 5.713-3.146 5.713-3.146a6.55 6.55 0 01-5.107.86c4.301-1.502 3.667-4.232 3.667-4.232a7.853 7.853 0 014.667 7.396c0 4.644-5.371 7.385-5.371 7.385-9.63 23.472-7.02 30.53-7.02 30.53H63.3l-2.383 3.52c-14.392-5.962-1.967-31.09-1.967-31.09-5.048-.752-11.834-5.475-11.834-11.722a10.023 10.023 0 011.619-5.513 10.938 10.938 0 00-3.503 7.86 10.943 10.943 0 003.257 7.968c-.108 0-.213.008-.32.007-9.112.23-16.71-6.97-17.035-16.145l-.039.067a16.057 16.057 0 00-.959 5.427c0 9.32 8.258 16.761 19.342 18.318a49.46 49.46 0 01.45 7.538 28.58 28.58 0 01-10.062-2.227 29.139 29.139 0 00-3.23 7.157 36.405 36.405 0 005.557 2.046 51.72 51.72 0 01-6.276.986 29.326 29.326 0 003.944 20.833 43.621 43.621 0 009.284 3.5s-7.854-8.105-4.186-21.362c2.447 1.18 5.616 4.164 9.35 10.855a12.017 12.017 0 005.622 5.477 8.509 8.509 0 018.097-4.863h13.026a3.39 3.39 0 013.26 2.223 10.045 10.045 0 004.777-7.47 8.298 8.298 0 00-1.708-5.944c1.254-16.219 6.455-24.09 6.455-24.09l1.49 10.1s7.942-6.767 4.217-19.801" fill="#FFFFFF"/><path d="M47.238 36.168l8.649 6.888 8.374-1.973a8.896 8.896 0 005.037 2.4L64.6 35.565s-1.722 1.126-1.654 2.68a13.041 13.041 0 01-5.774-1.574c-2.891-1.598-7.442-2.322-9.935-.503M39.297 39.34a15.422 15.422 0 00-2.707 12.917s7.125.707 10.732-2.826c0 0-10.866.453-8.025-10.09M49.485 73.433C38.4 71.872 30.143 64.43 30.143 55.115a16.087 16.087 0 011-5.547c-.364.43-.708.874-1.032 1.333a7.769 7.769 0 011.033-1.333c-5.962 4.538-8.975 12-7.85 19.441a9.238 9.238 0 013.714-5.16c1.623 9.492 11.278 16.667 22.928 17.125a49.46 49.46 0 00-.451-7.538M24.33 72.82s2.022 10.664 17.87 15.128c0 0-9.992 2.36-16.308.405 0 0-2.682-4.603-1.563-15.533" fill="#010101"/><path d="M92.341 49.41s.64 2.731-3.667 4.233a6.55 6.55 0 005.107-.862s-.62 3.535-5.713 3.148a6.93 6.93 0 002.935 1.706c-1.641.836-4.366 1.328-8.531-.463 0 0 .08-2.852 3.374-6.184 3.293-3.332 3.162-4.616 3.162-4.616l-4.483-6.278 2.5-3.24s-1.032-1.364-3.823.21a6.709 6.709 0 01-4.656 1.07l6.02 7.965s-3.415 1.397-14.786-.267a19.355 19.355 0 005.063 4.957c3.885 2.898 4.165 6.048 4.165 6.048s-11.12 6-20.89 2.27a16.754 16.754 0 004.977-2.533s-9.48.88-11.696-4.128a32.363 32.363 0 0012.397 1.548s-12.459-2.623-11.319-7.681a10.902 10.902 0 00-5.362 9.134c0 6.247 6.79 10.965 11.836 11.723 0 0-12.425 25.122 1.967 31.089l2.383-3.525h21.315s-2.609-7.071 7.02-30.542c0 0 5.372-2.738 5.372-7.385a7.852 7.852 0 00-4.667-7.397" fill="#010101"/><path d="M64.336 66.465l.512 8.848a23.855 23.855 0 006.3-8.307h11.214v8.015a19.554 19.554 0 005.212-10.803l-6.75-2.314-16.488 4.561zM77.494 86.814H67.21l.054-6.788s-5.866 4.97-3.364 10.31h16.77l1.061-10.31s-2.395 1.565-4.238 6.788" fill="#FFFFFF"/><path d="M108.83 108.819h-.945v2.605h-.889v-2.605h-.938v-.722h2.779l-.007.722zm4.718 2.605h-.887v-2.605h-.094l-.812 1.82h-.62l-.821-1.853h-.12v2.633h-.84v-3.324h1.444l.666 1.627.694-1.627h1.396l-.006 3.33z" fill="#FFB71B"/></g></svg>